#!OML:ASF E:\Mandelcareful walks\Project 1\Capture day 1\Session 1\Subject1.ASF
:FULLY-SPECIFIED
:DEGREES
367
root 44.2049 15.692 5.67515 178.896 45.4282 172.294
lowerback 31.4987 -1.52853 0.109118
upperback 8.01205 -0.803005 -2.79353
thorax -8.20773 0.204375 -3.00865
lowerneck -15.3493 18.5724 11.2267
upperneck 11.2348 28.2304 -23.2741
head 11.3686 12.0984 -4.71527
rclavicle 4.80562e-014 3.67752e-015
rhumerus -39.251 12.9087 -79.7768
rradius 56.5976
rwrist -18.083
rhand -9.62182 -20.8427
rfingers 7.12502
rthumb 16.3478 -50.1737
lclavicle 4.80562e-014 3.67752e-015
lhumerus -5.50327 -36.0098 64.7226
lradius 71.8821
lwrist 22.5121
lhand -29.5607 -17.3594
lfingers 7.12502
lthumb -2.8932 12.6007
rfemur -31.0348 -9.06618 9.60197
rtibia 54.3846
rfoot -21.6987 -1.0574
rtoes -7.24033
lfemur -36.2241 10.9327 -15.508
ltibia 53.0766
lfoot -14.7383 -0.447255
ltoes -17.0164
368
root 44.3167 15.6781 5.74898 178.988 43.7563 171.996
lowerback 31.4467 -1.5888 0.121405
upperback 7.97058 -0.867272 -2.86909
thorax -8.23564 0.180741 -3.07898
lowerneck -15.3164 18.6144 11.3983
upperneck 11.0828 28.276 -23.4392
head 11.3752 12.1306 -4.7778
rclavicle -5.2181e-014 4.59193e-014
rhumerus -39.0717 11.3981 -78.707
rradius 56.7418
rwrist -18.4913
rhand -9.95182 -21.1328
rfingers 7.12502
rthumb 16.03 -50.4897
lclavicle -5.2181e-014 4.59193e-014
lhumerus -7.4492 -36.1761 65.8956
lradius 69.624
lwrist 23.5296
lhand -28.2547 -17.3204
lfingers 7.12502
lthumb -1.63192 12.6531
rfemur -31.0667 -9.95585 9.66833
rtibia 54.8776
rfoot -22.1107 -1.50035
rtoes -5.82378
lfemur -36.5258 11.3676 -16.2017
ltibia 52.6275
lfoot -15.1868 2.58735
ltoes -18.0909
369
root 44.4322 15.683 5.81335 178.576 42.1885 171.041
lowerback 31.2985 -1.46497 -0.575771
upperback 7.9918 -0.902613 -2.97495
thorax -8.12963 0.186082 -2.7793
lowerneck -15.3891 18.6285 11.2127
upperneck 10.9548 28.2716 -23.3421
head 11.2917 12.1382 -4.7186
rclavicle 1.55052e-014 4.85035e-014
rhumerus -38.8038 10.0873 -77.6247
rradius 56.8049
rwrist -19.1182
rhand -10.8835 -21.3751
rfingers 7.12502
rthumb 15.1328 -50.8018
lclavicle 1.55052e-014 4.85035e-014
lhumerus -9.03836 -35.7406 67.0351
lradius 67.592
lwrist 23.1124
lhand -28.5595 -15.5597
lfingers 7.12502
lthumb -1.92625 14.4114
rfemur -30.9263 -10.7073 9.14798
rtibia 55.1551
rfoot -22.5913 -1.8079
rtoes -2.92805
lfemur -36.643 11.8103 -17.3883
ltibia 52.1725
lfoot -16.0459 5.75971
ltoes -17.3705
370
root 44.5449 15.71 5.86353 178.599 40.8314 170.738
lowerback 31.0629 -1.34837 -0.833133
upperback 8.07605 -0.794891 -2.97331
thorax -7.91201 0.253425 -2.66388
lowerneck -15.5781 18.541 10.6973
upperneck 10.7796 28.0843 -22.9938
head 11.0791 12.0674 -4.57995
rclavicle 5.47652e-014 -1.39149e-015
rhumerus -38.4758 9.17593 -76.6603
rradius 56.7232
rwrist -19.858
rhand -12.2753 -21.5705
rfingers 7.12502
rthumb 13.7917 -51.0934
lclavicle 5.47652e-014 -1.39149e-015
lhumerus -10.5098 -35.1198 68.1391
lradius 65.5051
lwrist 23.06
lhand -28.455 -15.1585
lfingers 7.12502
lthumb -1.82537 14.8134
rfemur -30.4541 -10.8478 9.1624
rtibia 55.1562
rfoot -23.3957 -2.71206
rtoes -1.46983
lfemur -36.5875 12.3323 -17.9456
ltibia 51.6701
lfoot -16.2261 7.18726
ltoes -12.3256
371
root 44.6499 15.699 5.92553 179.953 39.7497 172.193
lowerback 31.0167 -1.25002 -0.0430255
upperback 7.99372 -0.411106 -2.61718
thorax -7.97811 0.416947 -2.86084
lowerneck -15.7152 18.4228 10.4578
upperneck 10.6023 27.9107 -22.9636
head 10.9679 11.9954 -4.57517
rclavicle 3.75703e-014 -4.41302e-014
rhumerus -38.1029 8.05233 -75.6595
rradius 56.5845
rwrist -19.8633
rhand -12.8081 -21.7418
rfingers 7.12502
rthumb 13.2782 -51.2988
lclavicle 3.75703e-014 -4.41302e-014
lhumerus -12.3822 -34.0433 69.4195
lradius 63.822
lwrist 23.256
lhand -28.4837 -15.3341
lfingers 7.12502
lthumb -1.85306 14.6376
rfemur -30.4453 -11.0447 10.8819
rtibia 55.1833
rfoot -24.2038 -3.64423
rtoes -0.823774
lfemur -37.0192 13.0368 -16.8539
ltibia 51.4379
lfoot -15.3079 6.16366
ltoes -0.705115
